<?xml version="1.0" encoding="UTF-8" standalone="no"?>
<!-- Created with Inkscape (http://www.inkscape.org/) -->

<svg
   width="210mm"
   height="297mm"
   viewBox="0 0 210 297"
   version="1.1"
   id="svg1"
   xml:space="preserve"
   inkscape:version="1.3 (0e150ed6c4, 2023-07-21)"
   xmlns:inkscape="http://www.inkscape.org/namespaces/inkscape"
   xmlns:sodipodi="http://sodipodi.sourceforge.net/DTD/sodipodi-0.dtd"
   xmlns="http://www.w3.org/2000/svg"
   xmlns:svg="http://www.w3.org/2000/svg"><sodipodi:namedview
     id="namedview1"
     pagecolor="#ffffff"
     bordercolor="#111111"
     borderopacity="1"
     inkscape:showpageshadow="0"
     inkscape:pageopacity="0"
     inkscape:pagecheckerboard="1"
     inkscape:deskcolor="#d1d1d1"
     inkscape:document-units="mm"
     inkscape:zoom="7.9320556"
     inkscape:cx="405.38042"
     inkscape:cy="341.7147"
     inkscape:window-width="1920"
     inkscape:window-height="1001"
     inkscape:window-x="-9"
     inkscape:window-y="-9"
     inkscape:window-maximized="1"
     inkscape:current-layer="layer2" /><defs
     id="defs1" /><g
     inkscape:groupmode="layer"
     id="layer2"
     inkscape:label="Capa 2"><path
       id="rect3"
       style="opacity:1;fill:#353535;fill-opacity:0.224691;stroke-width:1.841;stroke-linecap:round;stroke-opacity:0.264198"
       d="m 108.41199,74.66366 -0.003,0.0031 c 0.81577,0.67951 1.15683,1.934935 1.12138,2.882512 0.10539,2.870904 -2.93698,5.525992 -5.88337,4.986775 -0.62281,-0.0041 -1.24041,-0.10738 -1.82676,-0.305407 l 2.43748,2.427242 3e-5,-2e-6 c 2.40626,-0.0054 4.87416,0.740241 6.81199,1.741495 2.28353,1.179885 3.67471,3.795634 3.67471,3.795634 0,0 0.25219,2.595148 -0.093,2.590023 -0.78495,-0.01165 -7.4579,-0.05478 -10.39368,-0.05478 -2.89262,0 -10.323456,0.234502 -10.811744,0.220142 -0.150087,-0.0044 0.06815,0.191296 0,0 l -0.318327,0.02326 8.599191,8.077716 c 2.92341,0.60863 5.90507,-0.006 8.91722,-1.26104 2.475,-1.262421 4.84432,-1.969985 8.00203,-6.816673 1.29075,-2.615078 2.54259,-5.230157 2.44053,-7.845235 z"
       sodipodi:nodetypes="cccccccscsssccccccc" /><circle
       style="opacity:1;fill:none;fill-opacity:1;stroke:#000000;stroke-width:1.841;stroke-linecap:round;stroke-dasharray:none;stroke-opacity:0.78765434"
       id="path1"
       cx="103.99177"
       cy="84.013382"
       r="18.020485" /></g><g
     inkscape:groupmode="layer"
     id="layer3"
     inkscape:label="Capa 3"><ellipse
       style="fill:#161616;fill-opacity:0.64313728;stroke:none;stroke-width:2.15162;stroke-linecap:round;stroke-dasharray:none;stroke-opacity:0.264198;opacity:1"
       id="path2-5"
       cx="104.02151"
       cy="77.549042"
       rx="5.5087838"
       ry="5.0983033" /><path
       id="path3-1"
       style="fill:#171717;fill-opacity:0.641975;stroke-width:1.841;stroke-linecap:round;stroke-opacity:0.264198"
       d="m 114.74444,90.195012 c 0,0 0.25221,2.594716 -0.093,2.589591 -0.78495,-0.01165 -7.45794,-0.05452 -10.39372,-0.05452 -2.89262,0 -11.130021,0.243574 -11.130021,0.243574 0,0 0,-2.385831 0,-2.747658 0,-0.108782 1.560974,-2.929478 4.666189,-4.182257 2.051554,-0.827686 4.375422,-1.381173 6.463832,-1.38586 2.40626,-0.0054 4.87406,0.739957 6.81189,1.741212 2.28354,1.179886 3.67486,3.795916 3.67486,3.795916 z"
       sodipodi:nodetypes="ssscssssss" /></g></svg>
